<?xml version="1.0" encoding="UTF-8"?>
<svg id="_Слой_2" data-name="Слой 2" xmlns="http://www.w3.org/2000/svg" viewBox="0 0 100 50">
  <g id="_Слой_2-2" data-name=" Слой 2">
    <g id="_Слой_1-2" data-name=" Слой 1-2">
      <g>
        <path d="M22.71,42.68c.83-.83,1.99-1.33,2.98-1.33,1.16,0,2.15.5,2.98,1.33,1.65,1.66,1.65,4.49,0,6.15-.66.67-1.82,1.16-2.81,1.16s-2.15-.5-2.98-1.33c-1.82-1.66-1.82-4.32-.17-5.99M25.69,23.9c1.32,0,2.48.5,3.48,1.5,1.99,2,1.99,4.99,0,6.98l5.96,5.99c1.16,1.16,2.81,1.16,3.97,0l11.42-11.47c1.16-1.16,1.16-2.83,0-3.99L29.5,1.62c-2.15-2.16-5.46-2.16-7.61,0L.87,22.9c-1.16,1.16-1.16,2.83,0,3.99l11.42,11.47c1.16,1.16,2.81,1.16,3.97,0l5.96-5.99c-1.99-2-1.99-4.99,0-6.98.99-1,2.32-1.5,3.48-1.5Z" style="fill: #7550fb; fill-rule: evenodd; stroke-width: 0px;"/>
        <g>
          <path d="M38.11,29.72l2.32-12.64h3.97l-1.65,8.98h5.3l-.66,3.66h-9.27Z" style="fill: #fff; stroke-width: 0px;"/>
          <path d="M58.79,30.05c-1.82,0-3.48-.5-4.63-1.66s-1.82-2.49-1.82-4.32c0-2.16.66-3.82,1.99-5.15s2.98-2,5.13-2c1.82,0,3.48.5,4.63,1.66s1.82,2.49,1.82,4.32c0,2.16-.66,3.82-1.99,5.15-1.32,1.33-2.98,2-5.13,2h0ZM58.79,26.39c.99,0,1.65-.33,2.15-1,.5-.67.83-1.5.83-2.49,0-.83-.17-1.33-.66-1.83s-.99-.67-1.82-.67-1.65.33-2.15,1c-.5.67-.83,1.5-.83,2.49,0,.83.17,1.33.66,1.83.5.5,1.16.83,1.82.67h0Z" style="fill: #7550fb; stroke-width: 0px;"/>
          <path d="M76.33,22.4h6.45l-1.16,6.15c-1.16,1-2.65,1.5-4.8,1.5s-3.64-.5-4.96-1.5-1.99-2.49-1.99-4.32c0-2.16.66-3.99,1.99-5.32s3.14-2,5.3-2c2.48,0,4.47.67,5.79,2.16l-2.98,2.66c-.33-.33-.66-.67-1.32-1-.5-.17-1.16-.33-1.65-.33-1.16,0-1.99.33-2.48,1-.5.67-.83,1.5-.83,2.49s.33,1.66.99,2.16,1.49.67,2.48.67c.5,0,.83,0,1.16-.17l.17-1.16h-2.98l.83-2.99h0Z" style="fill: #7550fb; stroke-width: 0px;"/>
          <path d="M92.88,30.05c-1.82,0-3.48-.5-4.63-1.66s-1.82-2.49-1.82-4.32c0-2.16.66-3.82,1.99-5.15s2.98-2,5.13-2c1.82,0,3.48.5,4.63,1.66s1.82,2.49,1.82,4.32c0,2.16-.66,3.82-1.99,5.15-1.32,1.33-2.98,2-5.13,2h0ZM92.88,26.39c.99,0,1.65-.33,2.15-1,.5-.67.83-1.5.83-2.49,0-.83-.17-1.33-.66-1.83-.5-.5-.99-.67-1.82-.67s-1.65.33-2.15,1c-.5.67-.83,1.5-.83,2.49,0,.83.17,1.33.66,1.83s.99.83,1.82.67h0Z" style="fill: #7550fb; stroke-width: 0px;"/>
        </g>
      </g>
    </g>
  </g>
</svg>